<mxfile host="app.diagrams.net" modified="2024-02-15T18:43:02.454Z" agent="Mozilla/5.0 (Windows NT 10.0; Win64; x64) AppleWebKit/537.36 (KHTML, like Gecko) Chrome/121.0.0.0 Safari/537.36" version="23.1.1" etag="MW4J2YiAq_xK3cNWRofv" type="github">
  <diagram name="Strona-1" id="vXGsdorHFwJAs_M249E0">
    <mxGraphModel>
      <root>
        <mxCell id="0" />
        <mxCell id="1" parent="0" />
      </root>
    </mxGraphModel>
  </diagram>
</mxfile>
